<mxfile host="app.diagrams.net" agent="Mozilla/5.0 (Macintosh; Intel Mac OS X 10_15_7) AppleWebKit/537.36 (KHTML, like Gecko) Chrome/130.0.0.0 Safari/537.36" version="25.0.3">
  <diagram name="Page-1" id="OktrFBAO3VFiyfOGnc8V">
    <mxGraphModel dx="1865" dy="2413" grid="1" gridSize="10" guides="1" tooltips="1" connect="1" arrows="1" fold="1" page="1" pageScale="1" pageWidth="827" pageHeight="1169" math="0" shadow="0">
      <root>
        <mxCell id="0" />
        <mxCell id="1" parent="0" />
        <mxCell id="GQhv-AbMXYz22JSgnZgT-2" value="" style="whiteSpace=wrap;html=1;aspect=fixed;" parent="1" vertex="1">
          <mxGeometry y="-130" width="960" height="960" as="geometry" />
        </mxCell>
        <mxCell id="GQhv-AbMXYz22JSgnZgT-4" value="" style="shape=folder;fontStyle=1;spacingTop=10;tabWidth=40;tabHeight=14;tabPosition=left;html=1;whiteSpace=wrap;fillColor=#dae8fc;strokeColor=#6c8ebf;" parent="1" vertex="1">
          <mxGeometry x="10" y="30" width="450" height="470" as="geometry" />
        </mxCell>
        <mxCell id="GQhv-AbMXYz22JSgnZgT-5" value="&lt;b&gt;Admin Interface&lt;/b&gt;" style="html=1;dropTarget=0;whiteSpace=wrap;fontFamily=Times New Roman;spacing=2;" parent="1" vertex="1">
          <mxGeometry x="240" y="230" width="130" height="70" as="geometry" />
        </mxCell>
        <mxCell id="GQhv-AbMXYz22JSgnZgT-6" value="" style="shape=module;jettyWidth=8;jettyHeight=4;fontFamily=Times New Roman;spacing=2;" parent="GQhv-AbMXYz22JSgnZgT-5" vertex="1">
          <mxGeometry x="1" width="20" height="20" relative="1" as="geometry">
            <mxPoint x="-27" y="7" as="offset" />
          </mxGeometry>
        </mxCell>
        <mxCell id="GQhv-AbMXYz22JSgnZgT-9" value="&lt;b&gt;Visitor Interface&lt;/b&gt;" style="html=1;dropTarget=0;whiteSpace=wrap;fontFamily=Times New Roman;spacing=2;" parent="1" vertex="1">
          <mxGeometry x="20" y="230" width="130" height="70" as="geometry" />
        </mxCell>
        <mxCell id="GQhv-AbMXYz22JSgnZgT-10" value="" style="shape=module;jettyWidth=8;jettyHeight=4;fontFamily=Times New Roman;spacing=2;" parent="GQhv-AbMXYz22JSgnZgT-9" vertex="1">
          <mxGeometry x="1" width="20" height="20" relative="1" as="geometry">
            <mxPoint x="-27" y="7" as="offset" />
          </mxGeometry>
        </mxCell>
        <mxCell id="GQhv-AbMXYz22JSgnZgT-11" value="&lt;b&gt;Floor Plan Display&lt;/b&gt;" style="html=1;dropTarget=0;whiteSpace=wrap;fontFamily=Times New Roman;spacing=2;" parent="1" vertex="1">
          <mxGeometry x="240" y="410" width="130" height="70" as="geometry" />
        </mxCell>
        <mxCell id="GQhv-AbMXYz22JSgnZgT-12" value="" style="shape=module;jettyWidth=8;jettyHeight=4;fontFamily=Times New Roman;spacing=2;" parent="GQhv-AbMXYz22JSgnZgT-11" vertex="1">
          <mxGeometry x="1" width="20" height="20" relative="1" as="geometry">
            <mxPoint x="-27" y="7" as="offset" />
          </mxGeometry>
        </mxCell>
        <mxCell id="GQhv-AbMXYz22JSgnZgT-13" value="&lt;b&gt;Interactive Map&lt;/b&gt;" style="html=1;dropTarget=0;whiteSpace=wrap;fontFamily=Times New Roman;spacing=2;" parent="1" vertex="1">
          <mxGeometry x="20" y="410" width="130" height="70" as="geometry" />
        </mxCell>
        <mxCell id="GQhv-AbMXYz22JSgnZgT-14" value="" style="shape=module;jettyWidth=8;jettyHeight=4;fontFamily=Times New Roman;spacing=2;" parent="GQhv-AbMXYz22JSgnZgT-13" vertex="1">
          <mxGeometry x="1" width="20" height="20" relative="1" as="geometry">
            <mxPoint x="-27" y="7" as="offset" />
          </mxGeometry>
        </mxCell>
        <mxCell id="GQhv-AbMXYz22JSgnZgT-15" value="&lt;b&gt;Welcome Page&lt;/b&gt;" style="html=1;dropTarget=0;whiteSpace=wrap;fontFamily=Times New Roman;spacing=2;" parent="1" vertex="1">
          <mxGeometry x="110" y="80" width="130" height="70" as="geometry" />
        </mxCell>
        <mxCell id="GQhv-AbMXYz22JSgnZgT-16" value="" style="shape=module;jettyWidth=8;jettyHeight=4;fontFamily=Times New Roman;spacing=2;" parent="GQhv-AbMXYz22JSgnZgT-15" vertex="1">
          <mxGeometry x="1" width="20" height="20" relative="1" as="geometry">
            <mxPoint x="-27" y="7" as="offset" />
          </mxGeometry>
        </mxCell>
        <mxCell id="GQhv-AbMXYz22JSgnZgT-17" value="Use" style="endArrow=open;endSize=12;dashed=1;html=1;rounded=0;exitX=0.5;exitY=1;exitDx=0;exitDy=0;entryX=0.5;entryY=0;entryDx=0;entryDy=0;" parent="1" source="GQhv-AbMXYz22JSgnZgT-9" target="GQhv-AbMXYz22JSgnZgT-13" edge="1">
          <mxGeometry width="160" relative="1" as="geometry">
            <mxPoint x="360" y="350" as="sourcePoint" />
            <mxPoint x="520" y="350" as="targetPoint" />
          </mxGeometry>
        </mxCell>
        <mxCell id="GQhv-AbMXYz22JSgnZgT-18" value="Extends" style="endArrow=block;endSize=16;endFill=0;html=1;rounded=0;exitX=0;exitY=0.5;exitDx=0;exitDy=0;entryX=1;entryY=0.5;entryDx=0;entryDy=0;" parent="1" source="GQhv-AbMXYz22JSgnZgT-11" target="GQhv-AbMXYz22JSgnZgT-13" edge="1">
          <mxGeometry width="160" relative="1" as="geometry">
            <mxPoint x="360" y="350" as="sourcePoint" />
            <mxPoint x="520" y="350" as="targetPoint" />
          </mxGeometry>
        </mxCell>
        <mxCell id="GQhv-AbMXYz22JSgnZgT-22" value="" style="rounded=0;whiteSpace=wrap;html=1;" parent="1" vertex="1">
          <mxGeometry x="250" y="85" width="120" height="60" as="geometry" />
        </mxCell>
        <mxCell id="GQhv-AbMXYz22JSgnZgT-23" value="User Chooses" style="text;html=1;align=center;verticalAlign=middle;whiteSpace=wrap;rounded=0;" parent="1" vertex="1">
          <mxGeometry x="260" y="85" width="90" height="25" as="geometry" />
        </mxCell>
        <mxCell id="GQhv-AbMXYz22JSgnZgT-24" value="- Visitor" style="text;html=1;align=center;verticalAlign=middle;whiteSpace=wrap;rounded=0;" parent="1" vertex="1">
          <mxGeometry x="260" y="102.5" width="90" height="25" as="geometry" />
        </mxCell>
        <mxCell id="GQhv-AbMXYz22JSgnZgT-25" value="- Admin" style="text;html=1;align=center;verticalAlign=middle;whiteSpace=wrap;rounded=0;" parent="1" vertex="1">
          <mxGeometry x="260" y="125" width="90" height="20" as="geometry" />
        </mxCell>
        <mxCell id="GQhv-AbMXYz22JSgnZgT-26" value="Use" style="endArrow=open;endSize=12;dashed=1;html=1;rounded=0;entryX=0.5;entryY=0;entryDx=0;entryDy=0;exitX=0.573;exitY=0.971;exitDx=0;exitDy=0;exitPerimeter=0;" parent="1" source="GQhv-AbMXYz22JSgnZgT-15" target="GQhv-AbMXYz22JSgnZgT-9" edge="1">
          <mxGeometry width="160" relative="1" as="geometry">
            <mxPoint x="228" y="350" as="sourcePoint" />
            <mxPoint x="165" y="450" as="targetPoint" />
          </mxGeometry>
        </mxCell>
        <mxCell id="GQhv-AbMXYz22JSgnZgT-27" value="Use" style="endArrow=open;endSize=12;dashed=1;html=1;rounded=0;entryX=0.5;entryY=0;entryDx=0;entryDy=0;exitX=0.581;exitY=0.971;exitDx=0;exitDy=0;exitPerimeter=0;" parent="1" source="GQhv-AbMXYz22JSgnZgT-15" target="GQhv-AbMXYz22JSgnZgT-5" edge="1">
          <mxGeometry width="160" relative="1" as="geometry">
            <mxPoint x="367" y="168" as="sourcePoint" />
            <mxPoint x="228" y="280" as="targetPoint" />
          </mxGeometry>
        </mxCell>
        <mxCell id="GQhv-AbMXYz22JSgnZgT-30" value="" style="shape=folder;fontStyle=1;spacingTop=10;tabWidth=40;tabHeight=14;tabPosition=left;html=1;whiteSpace=wrap;fillColor=#dae8fc;strokeColor=#6c8ebf;" parent="1" vertex="1">
          <mxGeometry x="510" y="60" width="440" height="160" as="geometry" />
        </mxCell>
        <mxCell id="GQhv-AbMXYz22JSgnZgT-31" value="&lt;b&gt;User Database&lt;/b&gt;" style="html=1;dropTarget=0;whiteSpace=wrap;fontFamily=Times New Roman;spacing=2;" parent="1" vertex="1">
          <mxGeometry x="520" y="110" width="130" height="70" as="geometry" />
        </mxCell>
        <mxCell id="GQhv-AbMXYz22JSgnZgT-32" value="" style="shape=module;jettyWidth=8;jettyHeight=4;fontFamily=Times New Roman;spacing=2;" parent="GQhv-AbMXYz22JSgnZgT-31" vertex="1">
          <mxGeometry x="1" width="20" height="20" relative="1" as="geometry">
            <mxPoint x="-27" y="7" as="offset" />
          </mxGeometry>
        </mxCell>
        <mxCell id="GQhv-AbMXYz22JSgnZgT-33" value="&lt;b&gt;Room Database&lt;/b&gt;" style="html=1;dropTarget=0;whiteSpace=wrap;fontFamily=Times New Roman;spacing=2;" parent="1" vertex="1">
          <mxGeometry x="665" y="110" width="130" height="70" as="geometry" />
        </mxCell>
        <mxCell id="GQhv-AbMXYz22JSgnZgT-34" value="" style="shape=module;jettyWidth=8;jettyHeight=4;fontFamily=Times New Roman;spacing=2;" parent="GQhv-AbMXYz22JSgnZgT-33" vertex="1">
          <mxGeometry x="1" width="20" height="20" relative="1" as="geometry">
            <mxPoint x="-27" y="7" as="offset" />
          </mxGeometry>
        </mxCell>
        <mxCell id="GQhv-AbMXYz22JSgnZgT-35" value="&lt;b&gt;Availability Status Database&amp;nbsp;&lt;/b&gt;" style="html=1;dropTarget=0;whiteSpace=wrap;fontFamily=Times New Roman;spacing=2;" parent="1" vertex="1">
          <mxGeometry x="810" y="110" width="130" height="70" as="geometry" />
        </mxCell>
        <mxCell id="GQhv-AbMXYz22JSgnZgT-36" value="" style="shape=module;jettyWidth=8;jettyHeight=4;fontFamily=Times New Roman;spacing=2;" parent="GQhv-AbMXYz22JSgnZgT-35" vertex="1">
          <mxGeometry x="1" width="20" height="20" relative="1" as="geometry">
            <mxPoint x="-27" y="7" as="offset" />
          </mxGeometry>
        </mxCell>
        <mxCell id="GQhv-AbMXYz22JSgnZgT-37" value="" style="shape=folder;fontStyle=1;spacingTop=10;tabWidth=40;tabHeight=14;tabPosition=left;html=1;whiteSpace=wrap;fillColor=#dae8fc;strokeColor=#6c8ebf;" parent="1" vertex="1">
          <mxGeometry x="490" y="270" width="450" height="450" as="geometry" />
        </mxCell>
        <mxCell id="GQhv-AbMXYz22JSgnZgT-39" value="&lt;b&gt;User Authentication&lt;/b&gt;" style="html=1;dropTarget=0;whiteSpace=wrap;fontFamily=Times New Roman;spacing=2;" parent="1" vertex="1">
          <mxGeometry x="500" y="315" width="130" height="70" as="geometry" />
        </mxCell>
        <mxCell id="GQhv-AbMXYz22JSgnZgT-40" value="" style="shape=module;jettyWidth=8;jettyHeight=4;fontFamily=Times New Roman;spacing=2;" parent="GQhv-AbMXYz22JSgnZgT-39" vertex="1">
          <mxGeometry x="1" width="20" height="20" relative="1" as="geometry">
            <mxPoint x="-27" y="7" as="offset" />
          </mxGeometry>
        </mxCell>
        <mxCell id="GQhv-AbMXYz22JSgnZgT-41" value="&lt;b&gt;Visitor Navigation Logic&lt;/b&gt;" style="html=1;dropTarget=0;whiteSpace=wrap;fontFamily=Times New Roman;spacing=2;" parent="1" vertex="1">
          <mxGeometry x="500" y="470" width="130" height="70" as="geometry" />
        </mxCell>
        <mxCell id="GQhv-AbMXYz22JSgnZgT-42" value="" style="shape=module;jettyWidth=8;jettyHeight=4;fontFamily=Times New Roman;spacing=2;" parent="GQhv-AbMXYz22JSgnZgT-41" vertex="1">
          <mxGeometry x="1" width="20" height="20" relative="1" as="geometry">
            <mxPoint x="-27" y="7" as="offset" />
          </mxGeometry>
        </mxCell>
        <mxCell id="GQhv-AbMXYz22JSgnZgT-45" value="&lt;b&gt;Map and Floor Plan Generation&lt;/b&gt;" style="html=1;dropTarget=0;whiteSpace=wrap;fontFamily=Times New Roman;spacing=2;" parent="1" vertex="1">
          <mxGeometry x="640" y="600" width="130" height="70" as="geometry" />
        </mxCell>
        <mxCell id="GQhv-AbMXYz22JSgnZgT-46" value="" style="shape=module;jettyWidth=8;jettyHeight=4;fontFamily=Times New Roman;spacing=2;" parent="GQhv-AbMXYz22JSgnZgT-45" vertex="1">
          <mxGeometry x="1" width="20" height="20" relative="1" as="geometry">
            <mxPoint x="-27" y="7" as="offset" />
          </mxGeometry>
        </mxCell>
        <mxCell id="GQhv-AbMXYz22JSgnZgT-47" value="&lt;b&gt;Admin Room Management Logic&lt;/b&gt;" style="html=1;dropTarget=0;whiteSpace=wrap;fontFamily=Times New Roman;spacing=2;" parent="1" vertex="1">
          <mxGeometry x="795" y="460" width="130" height="70" as="geometry" />
        </mxCell>
        <mxCell id="GQhv-AbMXYz22JSgnZgT-48" value="" style="shape=module;jettyWidth=8;jettyHeight=4;fontFamily=Times New Roman;spacing=2;" parent="GQhv-AbMXYz22JSgnZgT-47" vertex="1">
          <mxGeometry x="1" width="20" height="20" relative="1" as="geometry">
            <mxPoint x="-27" y="7" as="offset" />
          </mxGeometry>
        </mxCell>
        <mxCell id="GQhv-AbMXYz22JSgnZgT-50" value="Use" style="endArrow=open;endSize=12;dashed=1;html=1;rounded=0;entryX=0.25;entryY=0;entryDx=0;entryDy=0;exitX=0.454;exitY=0.986;exitDx=0;exitDy=0;exitPerimeter=0;" parent="1" source="GQhv-AbMXYz22JSgnZgT-31" target="GQhv-AbMXYz22JSgnZgT-39" edge="1">
          <mxGeometry width="160" relative="1" as="geometry">
            <mxPoint x="196" y="158" as="sourcePoint" />
            <mxPoint x="315" y="240" as="targetPoint" />
          </mxGeometry>
        </mxCell>
        <mxCell id="GQhv-AbMXYz22JSgnZgT-52" value="Extends" style="endArrow=block;endSize=16;endFill=0;html=1;rounded=0;exitX=0.5;exitY=0;exitDx=0;exitDy=0;entryX=0.5;entryY=1;entryDx=0;entryDy=0;" parent="1" source="GQhv-AbMXYz22JSgnZgT-41" target="GQhv-AbMXYz22JSgnZgT-39" edge="1">
          <mxGeometry width="160" relative="1" as="geometry">
            <mxPoint x="160" y="455" as="sourcePoint" />
            <mxPoint x="250" y="455" as="targetPoint" />
          </mxGeometry>
        </mxCell>
        <mxCell id="GQhv-AbMXYz22JSgnZgT-53" value="Extends" style="endArrow=block;endSize=16;endFill=0;html=1;rounded=0;exitX=0.5;exitY=0;exitDx=0;exitDy=0;entryX=0.5;entryY=1;entryDx=0;entryDy=0;" parent="1" source="GQhv-AbMXYz22JSgnZgT-47" target="GQhv-AbMXYz22JSgnZgT-39" edge="1">
          <mxGeometry x="-0.3546" y="-1" width="160" relative="1" as="geometry">
            <mxPoint x="725" y="395" as="sourcePoint" />
            <mxPoint x="570" y="385" as="targetPoint" />
            <mxPoint as="offset" />
          </mxGeometry>
        </mxCell>
        <mxCell id="GQhv-AbMXYz22JSgnZgT-54" value="" style="endArrow=open;endFill=1;endSize=12;html=1;rounded=0;exitX=0.5;exitY=1;exitDx=0;exitDy=0;entryX=0.5;entryY=0;entryDx=0;entryDy=0;" parent="1" source="GQhv-AbMXYz22JSgnZgT-35" target="GQhv-AbMXYz22JSgnZgT-47" edge="1">
          <mxGeometry width="160" relative="1" as="geometry">
            <mxPoint x="360" y="410" as="sourcePoint" />
            <mxPoint x="520" y="410" as="targetPoint" />
          </mxGeometry>
        </mxCell>
        <mxCell id="GQhv-AbMXYz22JSgnZgT-55" value="Use" style="endArrow=open;endSize=12;dashed=1;html=1;rounded=0;entryX=0.25;entryY=0;entryDx=0;entryDy=0;exitX=0.5;exitY=1;exitDx=0;exitDy=0;" parent="1" source="GQhv-AbMXYz22JSgnZgT-41" target="GQhv-AbMXYz22JSgnZgT-45" edge="1">
          <mxGeometry width="160" relative="1" as="geometry">
            <mxPoint x="589" y="189" as="sourcePoint" />
            <mxPoint x="693" y="325" as="targetPoint" />
          </mxGeometry>
        </mxCell>
        <mxCell id="GQhv-AbMXYz22JSgnZgT-57" value="Use" style="endArrow=open;endSize=12;dashed=1;html=1;rounded=0;exitX=0;exitY=1;exitDx=0;exitDy=0;entryX=0.25;entryY=0;entryDx=0;entryDy=0;" parent="1" source="GQhv-AbMXYz22JSgnZgT-33" target="GQhv-AbMXYz22JSgnZgT-45" edge="1">
          <mxGeometry width="160" relative="1" as="geometry">
            <mxPoint x="575" y="550" as="sourcePoint" />
            <mxPoint x="700" y="600" as="targetPoint" />
          </mxGeometry>
        </mxCell>
        <mxCell id="GQhv-AbMXYz22JSgnZgT-58" value="User Interface" style="text;align=center;fontStyle=1;verticalAlign=middle;spacingLeft=3;spacingRight=3;strokeColor=none;rotatable=0;points=[[0,0.5],[1,0.5]];portConstraint=eastwest;html=1;" parent="1" vertex="1">
          <mxGeometry x="180" y="50" width="80" height="26" as="geometry" />
        </mxCell>
        <mxCell id="GQhv-AbMXYz22JSgnZgT-59" value="Application Logic" style="text;align=center;fontStyle=1;verticalAlign=middle;spacingLeft=3;spacingRight=3;strokeColor=none;rotatable=0;points=[[0,0.5],[1,0.5]];portConstraint=eastwest;html=1;" parent="1" vertex="1">
          <mxGeometry x="690" y="289" width="80" height="26" as="geometry" />
        </mxCell>
        <mxCell id="GQhv-AbMXYz22JSgnZgT-61" value="Database" style="text;align=center;fontStyle=1;verticalAlign=middle;spacingLeft=3;spacingRight=3;strokeColor=none;rotatable=0;points=[[0,0.5],[1,0.5]];portConstraint=eastwest;html=1;" parent="1" vertex="1">
          <mxGeometry x="680" y="80" width="80" height="26" as="geometry" />
        </mxCell>
      </root>
    </mxGraphModel>
  </diagram>
</mxfile>
